<?xml version="1.0" encoding="utf-8"?>
<!-- Generator: Adobe Illustrator 16.0.0, SVG Export Plug-In . SVG Version: 6.00 Build 0)  -->
<!DOCTYPE svg PUBLIC "-//W3C//DTD SVG 1.1//EN" "http://www.w3.org/Graphics/SVG/1.1/DTD/svg11.dtd">
<svg version="1.1" id="Layer_1" xmlns="http://www.w3.org/2000/svg" xmlns:xlink="http://www.w3.org/1999/xlink" x="0px" y="0px"
	 width="871.457px" height="332.983px" viewBox="0 0 871.457 332.983" enable-background="new 0 0 871.457 332.983"
	 xml:space="preserve">
<g id="g5" transform="translate(413,-211.5)">
   <path fill="#fffdfd" d="m 50.11,367.75 c 3.58,-2.21 6.38,-5.17 8.42,-8.86 2.03,-3.69 3.04,-7.75 3.04,-12.18 0,-4.43 -1.07,-8.75 -3.21,-12.51 -2.14,-3.77 -5.13,-6.76 -8.97,-8.97 -3.84,-2.21 -8.19,-3.32 -13.07,-3.32 H 0 v 77.51 H 14.4 V 371.4 h 7.86 l 28.02,28.02 H 70.66 L 42.03,370.79 c 2.93,-0.51 5.63,-1.52 8.09,-3.04 z M 36.1,358.12 H 14.4 v -22.15 h 21.7 c 1.99,0 3.84,0.44 5.54,1.33 1.7,0.89 3.05,2.18 4.04,3.88 1,1.7 1.49,3.65 1.49,5.87 0,2.22 -0.5,4.17 -1.49,5.87 -1,1.7 -2.34,2.99 -4.04,3.88 -1.7,0.89 -3.54,1.33 -5.54,1.33 z" />
   <path fill="#fffdfd" d="m 131.94,326.06 c -6.09,-3.51 -12.83,-5.26 -20.21,-5.26 -7.38,0 -14.12,1.75 -20.21,5.26 -6.09,3.51 -10.89,8.3 -14.4,14.39 -3.51,6.09 -5.26,12.83 -5.26,20.21 0,7.38 1.75,14.12 5.26,20.21 3.51,6.09 8.31,10.89 14.4,14.4 6.09,3.51 12.83,5.26 20.21,5.26 7.38,0 14.12,-1.75 20.21,-5.26 6.09,-3.51 10.89,-8.3 14.4,-14.4 3.51,-6.09 5.26,-12.83 5.26,-20.21 0,-7.38 -1.75,-14.12 -5.26,-20.21 -3.51,-6.09 -8.31,-10.89 -14.4,-14.39 z m 1.94,47.56 c -2.21,3.91 -5.26,6.98 -9.14,9.19 -3.88,2.21 -8.21,3.32 -13.01,3.32 -4.8,0 -9.04,-1.11 -12.96,-3.32 -3.91,-2.21 -6.98,-5.26 -9.19,-9.14 -2.21,-3.88 -3.32,-8.21 -3.32,-13.01 0,-4.8 1.11,-9.04 3.32,-12.96 2.21,-3.91 5.26,-6.98 9.14,-9.19 3.88,-2.21 8.21,-3.32 13.01,-3.32 4.8,0 9.04,1.11 12.96,3.32 3.91,2.21 6.98,5.26 9.19,9.14 2.21,3.88 3.32,8.21 3.32,13.01 0,4.8 -1.11,9.04 -3.32,12.96 z" />
   <path fill="#fffdfd" d="m 220.52,376.72 c -2.25,2.88 -5.13,5.17 -8.64,6.87 -3.51,1.7 -7.36,2.55 -11.57,2.55 -4.8,0 -9.14,-1.09 -13.01,-3.27 -3.88,-2.18 -6.92,-5.15 -9.14,-8.91 -2.22,-3.76 -3.32,-7.86 -3.32,-12.29 0,-4.8 1.11,-9.21 3.32,-13.23 2.21,-4.02 5.26,-7.23 9.14,-9.63 3.88,-2.4 8.21,-3.6 13.01,-3.6 4.21,0 8.06,0.83 11.57,2.49 3.51,1.66 6.37,3.91 8.58,6.75 2.21,2.84 3.73,6 4.54,9.47 h 14.73 c -0.89,-6.2 -3.16,-11.83 -6.81,-16.89 -3.65,-5.06 -8.32,-9.02 -14.01,-11.9 -5.69,-2.88 -11.89,-4.32 -18.6,-4.32 -7.38,0 -14.12,1.85 -20.21,5.54 -6.09,3.69 -10.89,8.68 -14.4,14.95 -3.51,6.28 -5.26,13.1 -5.26,20.49 0,7.39 1.75,13.49 5.26,19.43 3.5,5.94 8.3,10.65 14.4,14.12 6.09,3.47 12.83,5.2 20.21,5.2 6.72,0 12.94,-1.46 18.66,-4.37 5.72,-2.92 10.41,-6.92 14.06,-12.01 3.65,-5.09 5.92,-10.74 6.81,-16.94 h -14.73 c -0.81,3.47 -2.34,6.64 -4.6,9.52 z" />
   <path fill="#fffdfd" d="m 323.17,380.88 c 3.5,-6.09 5.26,-12.83 5.26,-20.21 0,-7.38 -1.75,-14.12 -5.26,-20.21 -3.51,-6.09 -8.31,-10.89 -14.4,-14.39 -6.09,-3.51 -12.83,-5.26 -20.21,-5.26 -7.38,0 -14.12,1.75 -20.21,5.26 -6.09,3.51 -10.89,8.3 -14.4,14.39 -3.51,6.09 -5.26,12.83 -5.26,20.21 0,7.38 1.75,14.12 5.26,20.21 3.5,6.09 8.3,10.89 14.4,14.4 6.09,3.51 12.83,5.26 20.21,5.26 7.38,0 14.12,-1.75 20.21,-5.26 0.33,-0.19 0.64,-0.4 0.96,-0.59 l 5.96,5.96 10.19,-10.08 -5.49,-5.49 c 1,-1.32 1.93,-2.72 2.78,-4.2 z m -12.46,-7.26 c -0.21,0.38 -0.44,0.74 -0.67,1.1 l -16.6,-16.6 -10.19,10.08 15.84,15.84 c -3.22,1.39 -6.73,2.1 -10.53,2.1 -4.73,0 -9.04,-1.11 -12.96,-3.32 -3.91,-2.21 -6.98,-5.26 -9.19,-9.14 -2.21,-3.88 -3.32,-8.21 -3.32,-13.01 0,-4.8 1.11,-9.04 3.32,-12.96 2.21,-3.91 5.26,-6.98 9.14,-9.19 3.88,-2.21 8.21,-3.32 13.01,-3.32 4.8,0 9.04,1.11 12.96,3.32 3.91,2.21 6.98,5.26 9.19,9.14 2.21,3.88 3.32,8.21 3.32,13.01 0,4.8 -1.11,9.04 -3.32,12.96 z" />
</g>
<g>
	<path fill="#fffdfd" d="M432.1,251.83c-3.48,0-6.57-0.601-9.27-1.801c-2.7-1.199-4.981-2.835-6.84-4.904
		c-1.86-2.07-3.285-4.53-4.275-7.38c-0.99-2.85-1.485-5.925-1.485-9.226c0-3.299,0.495-6.359,1.485-9.18
		c0.99-2.819,2.415-5.279,4.275-7.38c1.859-2.1,4.14-3.749,6.84-4.95c2.7-1.199,5.79-1.8,9.27-1.8c5.52,0,10.02,1.11,13.5,3.33
		l-0.986,9.54c-3.707-2.46-7.562-3.69-11.566-3.69c-3.587,0-6.368,1.275-8.339,3.825c-1.973,2.551-2.958,5.984-2.958,10.305
		s0.986,7.756,2.958,10.305c1.972,2.552,4.752,3.825,8.339,3.825c4.005,0,7.859-1.229,11.566-3.689l0.986,9.54
		C442.119,250.719,437.619,251.83,432.1,251.83z"/>
	<path fill="#fffdfd" d="M489.52,245.08c-4.081,4.5-9.601,6.75-16.56,6.75c-3.48,0-6.615-0.601-9.405-1.801
		c-2.79-1.199-5.175-2.849-7.155-4.949c-1.98-2.1-3.51-4.56-4.59-7.381c-1.08-2.819-1.62-5.879-1.62-9.18
		c0-3.24,0.54-6.284,1.62-9.135c1.08-2.85,2.61-5.324,4.59-7.425c1.98-2.1,4.365-3.749,7.155-4.95c2.79-1.199,5.925-1.8,9.405-1.8
		c3.479,0,6.629,0.615,9.45,1.845c2.819,1.23,5.22,2.896,7.2,4.995c1.98,2.101,3.495,4.561,4.545,7.38
		c1.049,2.821,1.575,5.85,1.575,9.09C495.729,235.06,493.66,240.58,489.52,245.08z M481.173,218.259
		c-1.964-2.579-4.703-3.87-8.214-3.87c-3.572,0-6.341,1.291-8.304,3.87c-1.965,2.58-2.946,6-2.946,10.26
		c0,4.261,0.981,7.681,2.946,10.26c1.963,2.581,4.732,3.87,8.304,3.87s6.339-1.318,8.304-3.96c1.963-2.64,2.946-6.029,2.946-10.17
		C484.209,224.259,483.197,220.839,481.173,218.259z"/>
	<path fill="#fffdfd" d="M571.418,250.929h-11.16v-24.21c0-4.32-0.629-7.454-1.889-9.405c-1.261-1.949-3.42-2.925-6.48-2.925
		c-3.361,0-5.686,0.78-6.975,2.34c-1.291,1.562-1.936,3.69-1.936,6.391v27.81h-11.07v-24.21c0-2.34-0.166-4.305-0.494-5.896
		c-0.331-1.589-0.855-2.864-1.576-3.824c-0.719-0.959-1.65-1.635-2.789-2.025c-1.141-0.39-2.521-0.585-4.141-0.585
		c-3.419,0-6.18,1.23-8.28,3.69v32.85h-11.16v-45h9.18l0.63,3.51c3.479-2.819,7.32-4.229,11.521-4.229
		c2.759,0,5.369,0.585,7.83,1.755c2.459,1.17,4.439,2.866,5.939,5.085c0.42-0.84,1.094-1.665,2.025-2.476
		c0.93-0.81,2.039-1.544,3.33-2.204c1.289-0.66,2.744-1.185,4.365-1.575c1.619-0.39,3.359-0.585,5.219-0.585
		c2.939,0,5.535,0.51,7.785,1.529c2.25,1.021,4.125,2.461,5.625,4.32c1.5,1.86,2.625,4.126,3.375,6.795
		c0.75,2.671,1.125,5.625,1.125,8.865V250.929z"/>
	<path fill="#fffdfd" d="M649.359,250.929h-11.16v-24.21c0-4.32-0.63-7.454-1.89-9.405c-1.26-1.949-3.42-2.925-6.48-2.925
		c-3.36,0-5.686,0.78-6.975,2.34c-1.291,1.562-1.936,3.69-1.936,6.391v27.81h-11.069v-24.21c0-2.34-0.166-4.305-0.495-5.896
		c-0.33-1.589-0.855-2.864-1.575-3.824c-0.72-0.959-1.651-1.635-2.79-2.025c-1.141-0.39-2.52-0.585-4.14-0.585
		c-3.42,0-6.181,1.23-8.28,3.69v32.85h-11.16v-45h9.18l0.631,3.51c3.479-2.819,7.319-4.229,11.52-4.229
		c2.76,0,5.369,0.585,7.83,1.755c2.459,1.17,4.439,2.866,5.939,5.085c0.42-0.84,1.095-1.665,2.025-2.476
		c0.93-0.81,2.039-1.544,3.33-2.204c1.289-0.66,2.745-1.185,4.365-1.575c1.62-0.39,3.359-0.585,5.22-0.585
		c2.939,0,5.535,0.51,7.785,1.529c2.25,1.021,4.124,2.461,5.625,4.32c1.499,1.86,2.624,4.126,3.375,6.795
		c0.749,2.671,1.125,5.625,1.125,8.865V250.929z"/>
	<path fill="#fffdfd" d="M698.229,250.929H687.79l-0.181-2.7c-3.12,2.4-6.45,3.601-9.989,3.601c-12.722,0-19.08-7.229-19.08-21.69
		v-24.21h11.16v24.21c0,4.2,0.704,7.306,2.114,9.315c1.409,2.011,3.675,3.015,6.795,3.015c3.479,0,6.3-1.26,8.46-3.78v-32.76h11.16
		V250.929z"/>
	<path fill="#fffdfd" d="M748.358,250.929h-11.16v-24.21c0-4.199-0.706-7.304-2.115-9.315c-1.41-2.009-3.676-3.015-6.795-3.015
		c-3.42,0-6.24,1.291-8.46,3.87v32.67h-11.159v-45h10.439l0.18,2.7c3.18-2.279,6.48-3.42,9.9-3.42c12.779,0,19.17,7.17,19.17,21.51
		V250.929z"/>
	<path fill="#fffdfd" d="M769.506,199.089h-11.16v-11.16h11.16V199.089z M769.506,250.929h-11.16v-45h11.16V250.929z"/>
	<path fill="#fffdfd" d="M803.616,242.649l-0.99,9.181h-8.01c-1.98,0-3.721-0.315-5.221-0.945s-2.76-1.47-3.779-2.521
		c-1.021-1.049-1.786-2.295-2.295-3.734c-0.511-1.44-0.766-2.97-0.766-4.59v-24.931h-6.39l0.99-9.18h5.399v-9.9l11.16-1.17v11.07
		h9.9v9.18h-9.9v20.34c0,1.741,0.059,3.092,0.18,4.051c0.12,0.96,0.406,1.68,0.855,2.16c0.45,0.48,1.125,0.765,2.025,0.854
		s2.16,0.135,3.779,0.135H803.616z"/>
	<path fill="#fffdfd" d="M853.834,205.929l-28.17,66.78h-11.16l9.99-24.75l-18.72-42.03h12.42l11.521,28.98l11.699-28.98H853.834z"
		/>
</g>
<g>
	<g>
		<path fill="#FBB03B" d="M75.123,316.95c30.189-25.979,69.467-41.689,112.394-41.689c42.946,0,82.222,15.711,112.409,41.689
			c36.736-31.619,60.002-78.453,60.002-130.727c0-95.234-77.19-172.431-172.411-172.431c-95.202,0-172.399,77.196-172.399,172.431
			C15.117,238.497,38.385,285.331,75.123,316.95z"/>
	</g>
	<g>
		<path fill="#F7931E" d="M78.077,52.992c-38.44,31.624-62.96,79.562-62.96,133.231c0,52.273,23.268,99.107,60.006,130.727
			c30.189-25.979,69.467-41.689,112.394-41.689c42.946,0,82.222,15.711,112.409,41.689c36.736-31.619,60.002-78.453,60.002-130.727
			c0-53.668-24.516-101.604-62.955-133.229c-33.93-13.238-70.844-20.514-109.46-20.514C148.907,32.481,112.002,39.755,78.077,52.992
			z"/>
	</g>
	<g>
		<path fill="#F15A24" d="M17.044,160.391c-1.266,8.428-1.927,17.052-1.927,25.832c0,52.273,23.268,99.107,60.006,130.727
			c30.189-25.979,69.467-41.689,112.394-41.689c42.946,0,82.222,15.711,112.409,41.689c36.736-31.619,60.002-78.453,60.002-130.727
			c0-8.78-0.66-17.404-1.927-25.832c-48.485-33.338-107.202-52.865-170.488-52.865C124.238,107.526,65.526,127.054,17.044,160.391z"
			/>
	</g>
	<g>
		<path fill="#C1272D" d="M187.514,188.2c-61.591,0-117.81,22.995-160.571,60.854c10.352,26.43,27.026,49.688,48.181,67.896
			c30.189-25.979,69.467-41.689,112.394-41.689c42.946,0,82.222,15.711,112.409,41.689c21.153-18.207,37.826-41.465,48.178-67.896
			C305.34,211.195,249.116,188.2,187.514,188.2z"/>
	</g>
</g>
<g>
	<g>
		<path fill="#231F20" d="M168.682,199.844c-14.326-80.109-76.117-52.334-76.117-52.334l18.677,22.439
			c-9.491,1.182-16.188,4.192-16.188,4.192l17.944,21.562c-7.403,4.334-12.421,8.756-12.421,8.756l73.497,64.616
			c0.279-16.583-0.686-30.011-2.573-40.812C171.162,217.17,170.186,207.766,168.682,199.844z"/>
	</g>
</g>
<g>
	<path fill-rule="evenodd" clip-rule="evenodd" fill="#231F20" d="M236.208,127.495c0.294-0.484,0.567-0.973,1.022-1.465
		c0.972-1.049,1.041-3.094,1.137-4.707c0.391-6.389-2.414-11.828-9.468-13.747c-2.52-0.687-4.51-1.696-6.056-2.916l10.014-17.64
		l-15.092,6.076c-0.027-4.576,1.375-8.544,1.659-9.16c2.827-6.139,0.348-14.266-6.021-15.592
		c-7.338-1.529-15.097-1.175-22.667-1.602c-0.045,0.461,5.93,7.656,5.93,7.656c-10.34,0-20.666,0-32.243,0
		c4.95,4,8.815,7.007,12.671,10.047c-0.147,0.285-0.303,0.66-0.454,0.953c-10.907,0-21.813,0-33.503,0
		c9.27,18.811,23.92,25.719,43.9,22.824l0.942,2.235c-0.182-0.026-0.094-0.038-0.094-0.038v160.105
		C284.883,188.131,266.889,147.193,236.208,127.495z"/>
</g>
<g>
	<g>
		<path fill-rule="evenodd" clip-rule="evenodd" fill="#F15A24" d="M210.578,98.292c0,2.259-1.834,4.093-4.1,4.093
			c-2.26,0-4.094-1.834-4.094-4.093c0-2.265,1.834-4.099,4.094-4.099C208.744,94.194,210.578,96.028,210.578,98.292z"/>
	</g>
</g>
<g>
	<rect x="758" y="143.5" fill="#fffdfd" width="98" height="11.253"/>
</g>
</svg>
